<?xml version="1.0" encoding="UTF-8"?>
<svg id="MotionCOPs" xmlns="http://www.w3.org/2000/svg" width="256" height="256" version="1.1" viewBox="0 0 256 256">
  <!-- Generator: Adobe Illustrator 29.0.0, SVG Export Plug-In . SVG Version: 2.1.0 Build 186)  -->
  <path d="M128,0C57.31,0,0,57.31,0,128s57.31,128,128,128,128-57.31,128-128S198.69,0,128,0ZM204.67,198.17h-29.9v-80.42c0-8.69.38-18.28,1.13-28.78h-.75c-1.57,8.25-2.97,14.19-4.22,17.81l-31.5,91.39h-24.74l-32.06-90.45c-.87-2.44-2.28-8.69-4.21-18.75h-.85c.81,13.25,1.22,24.87,1.22,34.87v74.33h-27.27V63.76h44.33l27.46,79.67c2.19,6.37,3.78,12.78,4.78,19.21h.57c1.68-7.43,3.46-13.9,5.34-19.4l27.46-79.48h43.21v134.41Z"/>
  <path d="M204.67,63.76v134.41h-29.9v-80.42c0-8.69.38-18.28,1.13-28.78h-.75c-1.57,8.25-2.97,14.19-4.22,17.81l-31.5,91.39h-24.74l-32.06-90.45c-.87-2.44-2.28-8.69-4.21-18.75h-.85c.81,13.25,1.22,24.87,1.22,34.87v74.33h-27.27V63.76h44.33l27.46,79.67c2.19,6.37,3.78,12.78,4.78,19.21h.57c1.68-7.43,3.46-13.9,5.34-19.4l27.46-79.48h43.21Z" style="fill: #fff;"/>
</svg>